<?xml version="1.0" encoding="utf-8"?>
<!-- Svg Vector Icons : http://www.onlinewebfonts.com/icon -->
<!DOCTYPE svg PUBLIC "-//W3C//DTD SVG 1.1//EN" "http://www.w3.org/Graphics/SVG/1.1/DTD/svg11.dtd">
<svg version="1.1" xmlns="http://www.w3.org/2000/svg" xmlns:xlink="http://www.w3.org/1999/xlink" x="0px" y="0px" viewBox="0 0 1000 1000" enable-background="new 0 0 1000 1000" xml:space="preserve">
<metadata> Svg Vector Icons : http://www.onlinewebfonts.com/icon </metadata>
<g><path d="M728.7,273.8H271.3c-19.6,0-32.7,13.1-32.7,32.7c0,19.6,13.1,32.7,32.7,32.7h457.3c19.6,0,32.7-13.1,32.7-32.7C761.3,286.8,748.3,273.8,728.7,273.8z"/><path d="M728.7,437.1H271.3c-19.6,0-32.7,13.1-32.7,32.7c0,19.6,13.1,32.7,32.7,32.7h457.3c19.6,0,32.7-13.1,32.7-32.7C761.3,450.1,748.3,437.1,728.7,437.1z"/><path d="M892,12.4c3.3,0-784,0-784,0c-62.1,0-98,32.7-98,94.7v558.6c0,62.1,35.9,98,98,98h130.7v163.3c9.8,45.7,75.1,91.5,163.3,32.7l196-196h294c62.1,0,98-68.6,98-130.7V110.4C990,48.4,950.8,12.4,892,12.4z M924.7,633.1c0,42.5-26.1,65.3-68.6,65.3c3.3,0-290.7,0-290.7,0l-196,196c-42.5,42.5-65.3,0-65.3-32.7c0-68.6,0-163.3,0-163.3H140.7c-42.5,0-65.3-22.9-65.3-65.3v-490c0-42.5,22.9-65.3,65.3-65.3h718.7c42.5,0,65.3,22.9,65.3,65.3V633.1z"/></g>
</svg>